#N canvas 0 49 681 717 10;
#X obj 19 478 outlet~;
#X obj 19 236 inlet~ signal;
#X obj 55 263 inlet distance;
#X text 18 178 Creation argument:;
#X text 19 156 Dependencies: None;
#X text 169 264 Distance source-listener (m);
#X text 14 9 [attenuate~] simulates the inverse distance law \, which
states that the sound pressure from a spherical sound source in a free
field decays linearly with the distance from the sound source. The
same law is better known in a version that is known as the inverse
square laqw \, which states that the /acoustic intensity/ decays with
the /square/ of the distance. For our purposes \, however \, the first
version of the law is more convenient \, because gain factors in Pd
(i.e. \, numbers between 0 and 1 that we multiply signals with) correspond
to sound pressure \, not acoustic intensity.;
#X text 19 199 \$1: Reference distance (m) for which gain=1;
#X obj 19 431 /~;
#X obj 105 319 f \$1;
#X obj 105 346 max 1;
#X obj 105 292 loadbang;
#X obj 19 381 *~;
#X obj 55 292 t b f;
#X obj 55 394 max;
#X connect 1 0 12 0;
#X connect 2 0 13 0;
#X connect 8 0 0 0;
#X connect 9 0 10 0;
#X connect 10 0 12 1;
#X connect 10 0 14 0;
#X connect 11 0 9 0;
#X connect 12 0 8 0;
#X connect 13 0 14 0;
#X connect 13 1 14 1;
#X connect 14 0 8 1;
