#N canvas 786 67 533 508 10;
#X obj 183 230 inlet bang;
#X text 274 327 Trigger bell once;
#X obj 183 277 vline~;
#X obj 219 363 dbtorms;
#X obj 219 384 sig~;
#X obj 219 407 lop~ 1;
#X obj 124 440 *~;
#X obj 124 345 *~;
#X obj 124 306 osc~;
#X msg 183 256 0.5 2 \, 0.05 598 2 \, 0 250 600;
#X obj 124 370 bp~ 15000 10;
#X obj 124 284 +~ 1275;
#X obj 124 262 *~ 100;
#X obj 95 231 osc~ 742;
#X obj 219 323 \$1;
#X obj 219 302 loadbang;
#X obj 124 470 outlet~;
#X obj 219 343 * 1.28;
#X obj 124 394 *~ 0.06;
#X connect 0 0 9 0;
#X connect 2 0 7 1;
#X connect 3 0 4 0;
#X connect 4 0 5 0;
#X connect 5 0 6 1;
#X connect 6 0 16 0;
#X connect 7 0 10 0;
#X connect 8 0 7 0;
#X connect 9 0 2 0;
#X connect 10 0 18 0;
#X connect 11 0 8 0;
#X connect 12 0 11 0;
#X connect 13 0 7 0;
#X connect 13 0 12 0;
#X connect 14 0 17 0;
#X connect 15 0 14 0;
#X connect 17 0 3 0;
#X connect 18 0 6 0;
