#N canvas 449 230 450 300 10;
#X obj 24 96 osc~ 440;
#X obj 124 207 *~ 0.1;
#X obj 126 241 dac~;
#X msg 210 59 bang;
#X floatatom 122 140 5 0 0 0 - - -, f 5;
#X msg 176 85 0;
#X obj 121 113 f;
#X obj 95 73 metro 10;
#X text 104 23 a hacky test patch for doppler;
#X obj 117 168 doppler~;
#X obj 152 113 + 0.5;
#X connect 0 0 9 0;
#X connect 1 0 2 0;
#X connect 1 0 2 1;
#X connect 3 0 5 0;
#X connect 3 0 7 0;
#X connect 3 0 9 2;
#X connect 4 0 9 1;
#X connect 5 0 6 1;
#X connect 6 0 4 0;
#X connect 6 0 10 0;
#X connect 7 0 6 0;
#X connect 9 0 1 0;
#X connect 10 0 6 1;
