#N canvas 22 23 693 662 10;
#X obj 114 135 inlet~ signal;
#X obj 100 577 outlet~ signal;
#X obj 292 262 inlet distance;
#X obj 208 239 delwrite~ \$0-doppler2 10000;
#X obj 411 407 vd~ \$0-doppler2;
#X obj 19 239 delwrite~ \$0-doppler1 10000;
#X obj 292 407 vd~ \$0-doppler1;
#X text 398 256 Distance d between sound source and listener (m),
f 25;
#X text 28 8 [doppler~] simulates the Doppler effect that occurs when
the distance between a sound source and a listener changes dynamically
\, either because the sound source is moving \, or the listener \,
or both. The sound source is represented by the signal at the left
inlet \, while the current distance between source and listener is
expected at the right inlet. The pitch-shifted signal is produced at
the outlet.;
#X text 31 114 No dependencies or creation arguments;
#X text 415 322 Bonus points if you manage to toggle between two [delwrite~]/[vd~]
pairs \, such that triggering another flyby will not result in a temporary
pitch warp (http://puredata.hurleur.com/sujet-176-clearing-delay-lines)
, f 42;
#X obj 294 340 sig~;
#X obj 291 314 * 1000;
#X obj 293 367 lop~ 5;
#X obj 292 288 / 343;
#X obj 223 537 *~;
#X obj 280 545 *~;
#X obj 468 81 inlet trigger;
#X text 469 62 Drive-by trigger;
#X obj 467 103 tgl 15 0 empty empty empty 17 7 0 10 -262144 -1 -1 0
1;
#X obj 442 130 == 0;
#X obj 485 131 == 1;
#X obj 442 156 s is0;
#X obj 485 157 s is1;
#X obj 218 171 r is1;
#X obj 121 180 r is0;
#X obj 106 204 *~;
#X obj 202 203 *~;
#X obj 246 512 r is0;
#X obj 314 515 r is1;
#X obj 569 158 print;
#X connect 0 0 26 0;
#X connect 0 0 27 0;
#X connect 2 0 14 0;
#X connect 4 0 16 0;
#X connect 6 0 15 0;
#X connect 11 0 13 0;
#X connect 12 0 11 0;
#X connect 13 0 6 0;
#X connect 14 0 12 0;
#X connect 15 0 1 0;
#X connect 16 0 1 0;
#X connect 17 0 19 0;
#X connect 19 0 20 0;
#X connect 19 0 21 0;
#X connect 19 0 30 0;
#X connect 20 0 22 0;
#X connect 21 0 23 0;
#X connect 24 0 27 1;
#X connect 25 0 26 1;
#X connect 26 0 5 0;
#X connect 27 0 3 0;
#X connect 28 0 15 1;
#X connect 29 0 16 1;
