#N canvas 391 50 518 828 10;
#X obj 18 268 f \$2;
#X text 81 559 km/h -> m/s;
#X obj 36 558 / 3.6;
#X obj 36 504 loadbang;
#X obj 116 585 loadbang;
#X obj 18 241 inlet bang;
#X obj 18 295 t f f f;
#X text 77 476 ms -> s;
#X obj 116 612 f \$3;
#X obj 36 531 f \$1;
#X obj 116 639 t f f;
#X obj 116 666 *;
#X obj 18 477 * 0.001;
#X obj 18 585 *;
#X obj 18 639 *;
#X obj 18 733 +;
#X obj 18 760 sqrt;
#X obj 18 396 line 0 10;
#X obj 88 322 * -1;
#X obj 18 369 pack f f;
#X obj 18 787 outlet distance;
#X text 57 760 d = sqrt( d_min^2 + (v*t)^2 );
#X obj 100 450 outlet time;
#X obj 18 342 * 4;
#X obj 53 322 * 5;
#X obj 18 423 t f f;
#X text 73 533 Source velocity v (km/h);
#X text 153 607 Minimum distance d_min source-listener at flyby (m)
, f 30;
#X text 101 242 Trigger start of drive-by;
#X text 317 798 Florian Hollerweger \, 2015;
#X text 15 178 \$1: Velocity of moving sound source (km/h);
#X text 13 159 Creation arguments:;
#X text 88 342 Let post-drive-by time be 4 times longer than pre-drive-by
time (4*\$2);
#X text 56 268 Time T remaining until drive-by at t=0 (ms);
#X text 15 193 \$2: Time T until moment of closest apporach at t=0
(ms);
#X text 15 208 \$3: Minimum distance between source and listener at
t=0 (m);
#X obj 64 639 /;
#X obj 64 666 atan;
#X obj 18 612 t f f f;
#X obj 64 733 outlet theta;
#X text 72 709 theta = atan2( d(t) / d_min );
#X text 156 728 Current angle theta (rad) between front direction and
moving source, f 33;
#X text 9 14 [driveby] computes the line-of-sight distance d between
a listener and a sound source that passes in front of her (first outlet)
\, as well as the angle theta (in radians) between the front direction
and the current sound source's position (second outlet). It also outputs
the current time t \, where t=0 represents the moment of closest approach
at which d reaches its minimum and theta=0 (third outlet). It is assumed
that the sound source moves on ground level at constant speed from
left to right \, along a straight path which is perpendicular to the
listener's viewing direction.;
#X text 133 780 Current distance d between source and listener (m)
, f 22;
#X text 185 452 Current time t (ms), f 26;
#X connect 0 0 6 0;
#X connect 2 0 13 1;
#X connect 3 0 9 0;
#X connect 4 0 8 0;
#X connect 5 0 0 0;
#X connect 6 0 23 0;
#X connect 6 1 24 0;
#X connect 6 2 18 0;
#X connect 8 0 10 0;
#X connect 8 0 36 1;
#X connect 9 0 2 0;
#X connect 10 0 11 0;
#X connect 10 1 11 1;
#X connect 11 0 15 1;
#X connect 12 0 13 0;
#X connect 13 0 38 0;
#X connect 14 0 15 0;
#X connect 15 0 16 0;
#X connect 16 0 20 0;
#X connect 17 0 25 0;
#X connect 18 0 17 0;
#X connect 19 0 17 0;
#X connect 23 0 19 0;
#X connect 24 0 19 1;
#X connect 25 0 12 0;
#X connect 25 1 22 0;
#X connect 36 0 37 0;
#X connect 37 0 39 0;
#X connect 38 0 14 0;
#X connect 38 1 14 1;
#X connect 38 2 36 0;
