#N canvas 578 23 603 380 10;
#X obj 72 329 outlet~ whistle;
#X obj 32 81 inlet~ noise;
#X obj 91 115 inlet~ basefreq;
#X obj 200 115 inlet qfactor;
#X obj 72 303 *~;
#X obj 140 259 + 100;
#X obj 140 281 dbtorms;
#X obj 140 210 loadbang;
#X obj 91 146 *~ \$1;
#X obj 140 233 f \$2;
#X obj 72 179 vcf~ 500;
#X text 292 115 default qfactor is 500;
#X text 134 146 \$1: frequency multiplier;
#X text 193 233 \$2: output multiplier factor (in dB \, 0 db = full
volume);
#X text 177 21 fcomp~: Generate a frequency component from a noise
source \, given a base frequency and multiplier (to get center frequency)
\, q-factor \, and output multiplier;
#X connect 1 0 10 0;
#X connect 2 0 8 0;
#X connect 3 0 10 2;
#X connect 4 0 0 0;
#X connect 5 0 6 0;
#X connect 6 0 4 1;
#X connect 7 0 9 0;
#X connect 8 0 10 1;
#X connect 9 0 5 0;
#X connect 10 0 4 0;
