#N canvas 196 277 450 300 10;
#X obj 130 270 outlet~ signal;
#X obj 5 15 inlet~ noise;
#X obj 131 247 *~;
#X floatatom 272 162 5 0 0 0 - - -, f 5;
#X msg 272 141 1;
#X obj 272 121 loadbang;
#X obj 272 184 / \$1;
#X obj 273 206 sqrt;
#X text 309 148 higher harmonics are quieter, f 13;
#X obj 225 80 inlet q;
#X obj 119 187 vcf~;
#X obj 99 52 *~ \$1;
#X obj 99 23 inlet~ center_frequency;
#X connect 1 0 10 0;
#X connect 2 0 0 0;
#X connect 3 0 6 0;
#X connect 4 0 3 0;
#X connect 5 0 4 0;
#X connect 6 0 7 0;
#X connect 7 0 2 1;
#X connect 9 0 10 2;
#X connect 10 0 2 0;
#X connect 11 0 10 1;
#X connect 12 0 11 0;
