#N canvas 558 61 597 635 10;
#X obj 92 713 outlet~ left;
#X obj 190 713 outlet~ right;
#X obj 15 304 inlet~ mono;
#X text 282 549 g_L = cos( pi * (theta+theta_0) / 4 * theta_0 );
#X text 282 574 g_R = sin( pi * (theta+theta_0) / 4 * theta_0 );
#X obj 173 308 inlet theta;
#X text 22 164 Creation argument \$1: Off-center loudspeaker angle
theta_0 (specified in degrees \, not radians);
#X text 20 11 [pan~] pans a mono source signal (first inlet) onto a
stereo loudspeaker system of arbitrary width. The current phantom source
angle theta is specified in radians (second inlet) and is translated
to loudspeaker gain factors by means of a trigonometric (quarter sine)
panpot law. Negative angles are associated with phantom sources in
the left half of the stereo base \, while positive angles signify phantom
sources to the right. Phantom source angles beyond the off-center loudspeaker
angle theta_0 (\$1) are clipped to plus/minus theta_0..;
#X text 255 310 Current phantom source angle (radians);
#X obj 98 301 loadbang;
#X obj 285 368 \$1;
#X obj 285 390 / 360;
#X obj 285 412 * 6.2832;
#X obj 120 580 cos;
#X obj 173 491 +;
#X obj 173 513 / 4;
#X obj 173 535 * 3.1415;
#X obj 173 557 /;
#X obj 230 582 sin;
#X obj 230 604 sig~;
#X obj 230 626 lop~ 1;
#X obj 203 656 *~;
#X obj 120 602 sig~;
#X obj 120 624 lop~ 1;
#X obj 87 649 *~;
#X text 294 628 message rate to signal rate smoothing;
#X obj 172 438 min;
#X obj 170 468 max;
#X obj 210 440 * -1;
#X obj 106 335 t b b b;
#X text 319 369 Loudspeaker angle (degrees);
#X text 281 451 Clip out-of-range angles to loudspeaker angle;
#X connect 2 0 21 0;
#X connect 2 0 24 0;
#X connect 5 0 26 0;
#X connect 9 0 29 0;
#X connect 10 0 11 0;
#X connect 11 0 12 0;
#X connect 12 0 14 1;
#X connect 12 0 17 1;
#X connect 12 0 26 1;
#X connect 12 0 28 0;
#X connect 13 0 22 0;
#X connect 14 0 15 0;
#X connect 15 0 16 0;
#X connect 16 0 17 0;
#X connect 17 0 13 0;
#X connect 17 0 18 0;
#X connect 18 0 19 0;
#X connect 19 0 20 0;
#X connect 20 0 21 1;
#X connect 21 0 1 0;
#X connect 22 0 23 0;
#X connect 23 0 24 1;
#X connect 24 0 0 0;
#X connect 26 0 27 0;
#X connect 27 0 14 0;
#X connect 28 0 27 1;
#X connect 29 0 27 0;
#X connect 29 1 26 0;
#X connect 29 2 10 0;
