#N canvas 212 50 939 540 12;
#X text 3 12 [steamengine~] simulates the sound of a steam engine.
;
#X obj 65 480 outlet~ engine;
#X text 4 66 WARNING: Abstraction generates sound as soon as DSP in
on!;
#X obj 27 140 noise~;
#X text 3 30 No dependencies or creation arguments FALSE: add in the
train speed \$1 from rusty;
#X text 543 136 chuga-chuga dependent on train speed;
#X obj 27 355 *~;
#X text 549 50 high-pitched band-filtered noise for steam hissing,
f 24;
#X obj 223 99 loadbang;
#X obj 394 206 noise~;
#X obj 328 404 *~;
#X obj 223 198 sig~;
#X obj 395 270 *~ 2;
#X obj 394 242 bp~ 380 5;
#X obj 277 259 phasor~;
#X obj 279 369 bp~ 220 1;
#X obj 255 310 *~ -1;
#X obj 261 342 +~ 1;
#X obj 192 258 phasor~;
#X obj 230 285 *~;
#X obj 223 164 / 12;
#X text 544 115 filtered noise with AM (phasor);
#X obj 76 264 osc~;
#X obj 26 383 lop~ 1000;
#X obj 26 414 *~ 0.2;
#X obj 302 182 loadbang;
#X obj 302 216 t f;
#X obj 75 293 *~ 0.25;
#X obj 76 323 +~ 0.75;
#X obj 77 220 /~ 3;
#X obj 27 172 bp~ 8000 5;
#X text 547 168 km/hr -> rotations/sec -> divide by ~12;
#X obj 223 129 float \$1;
#X connect 3 0 30 0;
#X connect 6 0 23 0;
#X connect 8 0 32 0;
#X connect 9 0 13 0;
#X connect 10 0 1 0;
#X connect 11 0 14 0;
#X connect 11 0 18 0;
#X connect 11 0 29 0;
#X connect 12 0 10 1;
#X connect 13 0 12 0;
#X connect 14 0 19 1;
#X connect 15 0 10 0;
#X connect 16 0 17 0;
#X connect 17 0 15 0;
#X connect 18 0 19 0;
#X connect 19 0 16 0;
#X connect 20 0 11 0;
#X connect 22 0 27 0;
#X connect 23 0 24 0;
#X connect 24 0 1 0;
#X connect 25 0 26 0;
#X connect 26 0 14 1;
#X connect 26 0 18 1;
#X connect 26 0 22 1;
#X connect 27 0 28 0;
#X connect 28 0 6 1;
#X connect 29 0 22 0;
#X connect 30 0 6 0;
#X connect 32 0 20 0;
