#N canvas 352 221 744 568 10;
#N canvas 348 129 991 590 train~ 1;
#X obj 475 3 inlet bang;
#X obj 239 265 noise~;
#X msg 113 46 \; pd dsp 1;
#X msg 113 81 \; pd dsp 0;
#N canvas 630 23 814 449 multibands~ 0;
#X obj 140 34 inlet~ noise;
#X obj 520 40 inlet center_q;
#X obj 341 356 outlet~ audio~;
#X obj 140 61 s~ noise;
#X obj 45 133 r~ noise;
#X obj 442 119 r~ noise;
#X obj 311 303 *~;
#X obj 534 71 s center_q;
#X obj 225 136 r center_q;
#X obj 622 121 r center_q;
#X obj 103 134 r~ center_frequency;
#X obj 506 120 r~ center_frequency;
#X obj 367 64 s~ center_frequency;
#X obj 368 38 inlet~ center_frequency;
#X obj 225 35 inlet~ center_amplitude;
#X obj 13 185 noiseband~ 1;
#X obj 120 186 noiseband~ 2;
#X obj 221 189 noiseband~ 3;
#X obj 321 187 noiseband~ 4;
#X obj 422 186 noiseband~ 5;
#X obj 526 185 noiseband~ 6;
#X obj 650 187 noiseband~ 7;
#X text 416 270 each noiseband outputs a band of noise cenetered at
the first creation argument times the center frequency and with loudness
scaled by the harmonic number;
#X connect 0 0 3 0;
#X connect 1 0 7 0;
#X connect 4 0 15 0;
#X connect 4 0 16 0;
#X connect 4 0 17 0;
#X connect 5 0 18 0;
#X connect 5 0 19 0;
#X connect 5 0 20 0;
#X connect 5 0 21 0;
#X connect 6 0 2 0;
#X connect 8 0 15 2;
#X connect 8 0 16 2;
#X connect 8 0 17 2;
#X connect 9 0 18 2;
#X connect 9 0 19 2;
#X connect 9 0 20 2;
#X connect 9 0 21 2;
#X connect 10 0 15 1;
#X connect 10 0 17 1;
#X connect 11 0 18 1;
#X connect 11 0 19 1;
#X connect 11 0 20 1;
#X connect 11 0 21 1;
#X connect 13 0 12 0;
#X connect 14 0 6 1;
#X connect 15 0 6 0;
#X connect 16 0 6 0;
#X connect 17 0 6 0;
#X connect 18 0 6 0;
#X connect 19 0 6 0;
#X connect 20 0 6 0;
#X connect 21 0 6 0;
#X restore 436 413 pd multibands~;
#X obj 503 541 outlet~ audio;
#X floatatom 748 256 5 0 0 0 - - -, f 5;
#X text 523 465 master volume;
#X text 755 209 bandpass q value;
#X msg 749 232 200;
#X obj 423 157 vline~;
#X obj 527 200 *~ 100;
#X text 567 252 fundamental frequency, f 14;
#X text 348 198 fundamental amplitude, f 14;
#X obj 423 55 random 100;
#X msg 424 102 1 \$1;
#X msg 510 106 0 450 \$1;
#X obj 423 77 + 1450;
#X text 284 51 randomized attack between 1.45 and 1.55s, f 22;
#X text 595 56 randomized sustain between 3s and 5s, f 22;
#X obj 520 279 +~;
#X obj 576 200 r bang;
#X obj 563 25 s bang;
#X obj 575 224 random 10;
#X obj 435 191 r bang;
#X obj 418 285 *~;
#X obj 434 214 random 35;
#X obj 436 258 / 100;
#X obj 435 237 + 65;
#X obj 476 466 *~ 0.9;
#X obj 529 223 +~ 680;
#X obj 513 56 random 500;
#X obj 513 81 + 1000;
#X connect 0 0 9 0;
#X connect 0 0 14 0;
#X connect 0 0 22 0;
#X connect 0 0 31 0;
#X connect 1 0 4 0;
#X connect 4 0 29 0;
#X connect 6 0 4 3;
#X connect 9 0 6 0;
#X connect 10 0 11 0;
#X connect 10 0 25 0;
#X connect 11 0 30 0;
#X connect 14 0 17 0;
#X connect 15 0 10 0;
#X connect 16 0 10 0;
#X connect 17 0 15 0;
#X connect 20 0 4 2;
#X connect 21 0 23 0;
#X connect 23 0 20 1;
#X connect 24 0 26 0;
#X connect 25 0 4 1;
#X connect 26 0 28 0;
#X connect 27 0 25 1;
#X connect 28 0 27 0;
#X connect 29 0 5 0;
#X connect 30 0 20 0;
#X connect 31 0 32 0;
#X connect 32 0 16 0;
#X restore 146 176 pd train~;
#X text 170 99 Press to start the train!;
#X obj 96 98 inlet bang;
#X obj 137 218 outlet~;
#X connect 0 0 3 0;
#X connect 2 0 0 0;
